<svg xmlns="http://www.w3.org/2000/svg" x="0px" y="0px" width="141.986px" height="46.061px"><circle fill="#D8615D" cx="11" cy="38.174" r="3.326"/><path fill="#D8615D" d="M11 .5C5.21.5.5 5.158.5 10.883c0 3.809 2.038 6.879 4.398 10.434C7.276 24.9 9.924 28.891 11 34.46c1.076-5.569 3.724-9.56 6.102-13.142 2.36-3.556 4.398-6.626 4.398-10.435C21.5 5.158 16.79.5 11 .5z"/><path fill="#983434" d="M22 10.883C22 4.882 17.065 0 11 0S0 4.882 0 10.883c0 3.96 2.077 7.088 4.481 10.711 2.307 3.477 4.915 7.418 5.992 12.807-1.859.26-3.299 1.844-3.299 3.773A3.83 3.83 0 0 0 11 42a3.831 3.831 0 0 0 3.826-3.826c0-1.929-1.441-3.513-3.299-3.773 1.078-5.392 3.684-9.331 5.992-12.806C19.923 17.972 22 14.843 22 10.883zm-8.174 27.291C13.826 39.732 12.559 41 11 41s-2.826-1.268-2.826-2.826S9.441 35.348 11 35.348s2.826 1.267 2.826 2.826zM11 32.281c-1.285-4.609-3.606-8.107-5.686-11.241C3 17.553 1 14.542 1 10.883 1 5.434 5.486 1 11 1s10 4.434 10 9.883c0 3.658-2 6.67-4.315 10.159-2.079 3.132-4.4 6.628-5.685 11.239z"/><circle fill="#481618" cx="11" cy="11.015" r="3.326"/><path d="M23.018 41.104l1.172-3.943h1.816l-2.549 7.324-.141.334c-.379.828-1.004 1.242-1.875 1.242-.246 0-.496-.037-.75-.111v-1.283l.258.006c.32 0 .56-.049.718-.146s.282-.26.372-.486l.199-.521-2.221-6.357h1.822l1.179 3.941zm8.929-3.944v6.34h-1.693v-4.975H28.76l-.105 1.959c-.066 1.045-.271 1.806-.615 2.282-.344.478-.855.722-1.535.733h-.575l-.018-1.365.211-.018c.305-.023.527-.203.668-.54s.229-.91.264-1.722l.117-2.695h4.775zm5.127 0h1.693v6.34h-1.693v-3.914L34.953 43.5h-1.699v-6.34h1.699v3.908l2.121-3.908zm2.989 0h1.693v4.975h2.121V37.16h1.699v4.986h.949l-.117 3.234h-1.576V43.5h-4.77v-6.34zm10.986 6.34a1.879 1.879 0 0 1-.17-.568c-.41.457-.943.686-1.6.686-.621 0-1.136-.18-1.544-.539s-.612-.813-.612-1.359c0-.672.249-1.188.747-1.547s1.218-.541 2.159-.545h.779v-.363c0-.293-.075-.527-.226-.703s-.388-.264-.712-.264c-.285 0-.509.068-.671.205s-.243.324-.243.563h-1.693c0-.367.113-.707.34-1.02s.547-.558.961-.735.879-.267 1.395-.267c.781 0 1.401.196 1.86.589s.688.944.688 1.655v2.748c.004.602.088 1.057.252 1.365v.1h-1.71zm-1.401-1.178c.25 0 .48-.056.691-.167s.367-.261.469-.448v-1.09h-.633c-.848 0-1.299.293-1.354.879l-.006.1c0 .211.074.385.223.521s.353.205.61.205zm13.957-1.664c-.066.918-.405 1.641-1.017 2.168s-1.417.791-2.417.791c-1.094 0-1.954-.368-2.581-1.104s-.94-1.747-.94-3.032v-.521c0-.82.145-1.543.434-2.168s.702-1.104 1.239-1.438 1.161-.501 1.872-.501c.984 0 1.777.264 2.379.791s.949 1.268 1.043 2.221h-1.758c-.043-.551-.196-.95-.46-1.198s-.665-.372-1.204-.372c-.586 0-1.024.21-1.315.63s-.44 1.071-.448 1.954v.645c0 .922.14 1.596.419 2.021s.72.639 1.321.639c.543 0 .948-.124 1.216-.372s.421-.632.46-1.151h1.757zm6.305-2.133h-2.033V43.5h-1.699v-4.975H64.18V37.16h5.73v1.365zm6.557 1.864c0 .977-.222 1.759-.665 2.347s-1.042.882-1.796.882c-.641 0-1.158-.223-1.553-.668v2.988H70.76V37.16h1.57l.059.621c.41-.492.945-.738 1.605-.738.781 0 1.389.289 1.822.867s.65 1.375.65 2.391v.088zm-1.694-.129c0-.592-.104-1.048-.313-1.369s-.513-.482-.911-.482c-.531 0-.896.204-1.096.611v2.604c.207.419.576.629 1.107.629.809-.001 1.213-.665 1.213-1.993zm2.479.011c0-.629.121-1.189.363-1.682s.591-.873 1.046-1.143.983-.404 1.585-.404c.855 0 1.554.262 2.095.785s.843 1.234.905 2.133l.012.434c0 .973-.271 1.753-.814 2.341s-1.271.882-2.186.882-1.644-.293-2.188-.879-.817-1.383-.817-2.391v-.076zm1.693.121c0 .603.113 1.063.34 1.382.227.319.551.479.973.479.41 0 .73-.157.961-.473.23-.314.346-.818.346-1.511 0-.591-.115-1.049-.346-1.373-.23-.325-.555-.487-.973-.487-.414 0-.734.161-.961.484-.226.322-.34.822-.34 1.499zm9.176-3.232h1.693v6.34h-1.693v-3.914L86 43.5h-1.699v-6.34H86v3.908l2.121-3.908zm8.25 1.365h-2.033V43.5h-1.699v-4.975h-1.998V37.16h5.73v1.365zm3.393 5.092c-.93 0-1.687-.285-2.271-.855s-.876-1.33-.876-2.279v-.164c0-.637.123-1.206.369-1.708s.595-.889 1.046-1.16.966-.407 1.544-.407c.867 0 1.55.273 2.048.82s.747 1.322.747 2.326v.691h-4.037c.055.414.22.746.495.996s.624.375 1.046.375c.652 0 1.162-.236 1.529-.709l.832.932c-.254.359-.598.64-1.031.841s-.914.301-1.441.301zm-.194-5.209c-.336 0-.608.114-.817.342s-.343.553-.401.977h2.355v-.136c-.008-.376-.109-.668-.305-.874s-.472-.309-.832-.309zm9.276-1.248v6.34h-1.693v-4.975h-1.494l-.105 1.959c-.066 1.045-.271 1.806-.615 2.282-.344.478-.855.722-1.535.733h-.574l-.018-1.365.211-.018c.305-.023.527-.203.668-.54s.229-.91.264-1.722l.117-2.695h4.774zm4.224 6.457c-.93 0-1.687-.285-2.271-.855s-.876-1.33-.876-2.279v-.164c0-.637.123-1.206.369-1.708s.595-.889 1.046-1.16.966-.407 1.544-.407c.867 0 1.55.273 2.048.82s.747 1.322.747 2.326v.691h-4.037c.055.414.22.746.495.996s.624.375 1.046.375c.652 0 1.162-.236 1.529-.709l.832.932c-.254.359-.598.64-1.031.841s-.913.301-1.441.301zm-.193-5.209c-.336 0-.608.114-.817.342s-.343.553-.401.977h2.355v-.136c-.008-.376-.109-.668-.305-.874s-.473-.309-.832-.309zm7.582-1.248h1.693v6.34h-1.693v-3.914l-2.121 3.914h-1.699v-6.34h1.699v3.908l2.121-3.908zm.996-2.566c0 .518-.187.937-.56 1.256s-.862.479-1.468.479-1.095-.157-1.468-.473-.56-.736-.56-1.262h1.201c0 .246.073.437.22.571s.349.202.606.202c.254 0 .453-.067.598-.202s.217-.325.217-.571h1.214zm2.432 11.045l-.885-.463.211-.381c.262-.477.396-.951.404-1.424v-1.313h1.43l-.006 1.172c-.004.434-.113.871-.328 1.313s-.49.807-.826 1.096zm9.521-2.139h-1.693v-6.536l-2.021.624v-1.365l3.533-1.266h.182V43.5zm3.024-4.195l.492-4.336h4.781v1.412h-3.393l-.211 1.834c.402-.215.83-.322 1.283-.322.813 0 1.449.252 1.91.756s.691 1.209.691 2.115c0 .551-.116 1.044-.349 1.479s-.565.773-.999 1.014-.945.36-1.535.36c-.516 0-.994-.104-1.436-.313s-.79-.503-1.046-.882-.392-.811-.407-1.295h1.676c.035.355.159.632.372.829s.491.296.835.296c.383 0 .678-.138.885-.413s.311-.665.311-1.169c0-.484-.119-.855-.357-1.113s-.576-.387-1.014-.387c-.402 0-.729.105-.979.316l-.164.152-1.346-.333z" fill="#640308"/></svg>