<?xml version="1.0" encoding="utf-8"?>
<!-- Generator: Adobe Illustrator 17.0.0, SVG Export Plug-In . SVG Version: 6.00 Build 0)  -->
<!DOCTYPE svg PUBLIC "-//W3C//DTD SVG 1.1//EN" "http://www.w3.org/Graphics/SVG/1.1/DTD/svg11.dtd">
<svg version="1.1" id="Layer_1" xmlns="http://www.w3.org/2000/svg" xmlns:xlink="http://www.w3.org/1999/xlink" x="0px" y="0px"
	 width="141.986px" height="46.061px" viewBox="0 0 141.986 46.061" enable-background="new 0 0 141.986 46.061"
	 xml:space="preserve">
<circle fill="#D8615D" cx="11" cy="38.174" r="3.326"/>
<path fill="#D8615D" d="M11,0.5C5.21,0.5,0.5,5.158,0.5,10.883c0,3.809,2.038,6.879,4.398,10.434C7.276,24.9,9.924,28.891,11,34.46
	c1.076-5.569,3.724-9.56,6.102-13.142c2.36-3.556,4.398-6.626,4.398-10.435C21.5,5.158,16.79,0.5,11,0.5z"/>
<path fill="#983434" d="M22,10.883C22,4.882,17.065,0,11,0S0,4.882,0,10.883c0,3.96,2.077,7.088,4.481,10.711
	c2.307,3.477,4.915,7.418,5.992,12.807c-1.859,0.26-3.299,1.844-3.299,3.773C7.174,40.283,8.89,42,11,42
	c2.109,0,3.826-1.717,3.826-3.826c0-1.929-1.441-3.513-3.299-3.773c1.078-5.392,3.684-9.331,5.992-12.806
	C19.923,17.972,22,14.843,22,10.883z M13.826,38.174C13.826,39.732,12.559,41,11,41s-2.826-1.268-2.826-2.826
	S9.441,35.348,11,35.348S13.826,36.615,13.826,38.174z M11,32.281c-1.285-4.609-3.606-8.107-5.686-11.241
	C3,17.553,1,14.542,1,10.883C1,5.434,5.486,1,11,1c5.514,0,10,4.434,10,9.883c0,3.658-2,6.67-4.315,10.159
	C14.606,24.174,12.285,27.67,11,32.281z"/>
<circle fill="#481618" cx="11" cy="11.015" r="3.326"/>
<g>
	<path fill="#640308" d="M23.018,41.104l1.172-3.943h1.816l-2.549,7.324l-0.141,0.334c-0.379,0.828-1.004,1.242-1.875,1.242
		c-0.246,0-0.496-0.037-0.75-0.111v-1.283l0.258,0.006c0.32,0,0.56-0.049,0.718-0.146s0.282-0.26,0.372-0.486l0.199-0.521
		l-2.221-6.357h1.822L23.018,41.104z"/>
	<path fill="#640308" d="M31.947,37.16v6.34h-1.693v-4.975H28.76l-0.105,1.959c-0.066,1.045-0.271,1.806-0.615,2.282
		c-0.344,0.478-0.855,0.722-1.535,0.733H25.93l-0.018-1.365l0.211-0.018c0.305-0.023,0.527-0.203,0.668-0.54s0.229-0.91,0.264-1.722
		l0.117-2.695H31.947z"/>
	<path fill="#640308" d="M37.074,37.16h1.693v6.34h-1.693v-3.914L34.953,43.5h-1.699v-6.34h1.699v3.908L37.074,37.16z"/>
	<path fill="#640308" d="M40.063,37.16h1.693v4.975h2.121V37.16h1.699v4.986h0.949l-0.117,3.234h-1.576V43.5h-4.77V37.16z"/>
	<path fill="#640308" d="M51.049,43.5c-0.078-0.152-0.135-0.342-0.17-0.568c-0.41,0.457-0.943,0.686-1.6,0.686
		c-0.621,0-1.136-0.18-1.544-0.539s-0.612-0.813-0.612-1.359c0-0.672,0.249-1.188,0.747-1.547s1.218-0.541,2.159-0.545h0.779v-0.363
		c0-0.293-0.075-0.527-0.226-0.703s-0.388-0.264-0.712-0.264c-0.285,0-0.509,0.068-0.671,0.205s-0.243,0.324-0.243,0.563h-1.693
		c0-0.367,0.113-0.707,0.34-1.02s0.547-0.558,0.961-0.735s0.879-0.267,1.395-0.267c0.781,0,1.401,0.196,1.86,0.589
		s0.688,0.944,0.688,1.655v2.748c0.004,0.602,0.088,1.057,0.252,1.365v0.1H51.049z M49.648,42.322c0.25,0,0.48-0.056,0.691-0.167
		s0.367-0.261,0.469-0.448v-1.09h-0.633c-0.848,0-1.299,0.293-1.354,0.879l-0.006,0.1c0,0.211,0.074,0.385,0.223,0.521
		S49.391,42.322,49.648,42.322z"/>
	<path fill="#640308" d="M63.605,40.658c-0.066,0.918-0.405,1.641-1.017,2.168s-1.417,0.791-2.417,0.791
		c-1.094,0-1.954-0.368-2.581-1.104s-0.94-1.747-0.94-3.032v-0.521c0-0.82,0.145-1.543,0.434-2.168s0.702-1.104,1.239-1.438
		s1.161-0.501,1.872-0.501c0.984,0,1.777,0.264,2.379,0.791s0.949,1.268,1.043,2.221h-1.758c-0.043-0.551-0.196-0.95-0.46-1.198
		s-0.665-0.372-1.204-0.372c-0.586,0-1.024,0.21-1.315,0.63s-0.44,1.071-0.448,1.954v0.645c0,0.922,0.14,1.596,0.419,2.021
		s0.72,0.639,1.321,0.639c0.543,0,0.948-0.124,1.216-0.372s0.421-0.632,0.46-1.151H63.605z"/>
	<path fill="#640308" d="M69.91,38.525h-2.033V43.5h-1.699v-4.975H64.18V37.16h5.73V38.525z"/>
	<path fill="#640308" d="M76.467,40.389c0,0.977-0.222,1.759-0.665,2.347s-1.042,0.882-1.796,0.882
		c-0.641,0-1.158-0.223-1.553-0.668v2.988H70.76V37.16h1.57l0.059,0.621c0.41-0.492,0.945-0.738,1.605-0.738
		c0.781,0,1.389,0.289,1.822,0.867s0.65,1.375,0.65,2.391V40.389z M74.773,40.26c0-0.592-0.104-1.048-0.313-1.369
		s-0.513-0.482-0.911-0.482c-0.531,0-0.896,0.204-1.096,0.611v2.604c0.207,0.419,0.576,0.629,1.107,0.629
		C74.369,42.252,74.773,41.588,74.773,40.26z"/>
	<path fill="#640308" d="M77.252,40.271c0-0.629,0.121-1.189,0.363-1.682s0.591-0.873,1.046-1.143s0.983-0.404,1.585-0.404
		c0.855,0,1.554,0.262,2.095,0.785s0.843,1.234,0.905,2.133l0.012,0.434c0,0.973-0.271,1.753-0.814,2.341s-1.271,0.882-2.186,0.882
		s-1.644-0.293-2.188-0.879s-0.817-1.383-0.817-2.391V40.271z M78.945,40.392c0,0.603,0.113,1.063,0.34,1.382
		c0.227,0.319,0.551,0.479,0.973,0.479c0.41,0,0.73-0.157,0.961-0.473c0.23-0.314,0.346-0.818,0.346-1.511
		c0-0.591-0.115-1.049-0.346-1.373c-0.23-0.325-0.555-0.487-0.973-0.487c-0.414,0-0.734,0.161-0.961,0.484
		C79.059,39.215,78.945,39.715,78.945,40.392z"/>
	<path fill="#640308" d="M88.121,37.16h1.693v6.34h-1.693v-3.914L86,43.5h-1.699v-6.34H86v3.908L88.121,37.16z"/>
	<path fill="#640308" d="M96.371,38.525h-2.033V43.5h-1.699v-4.975h-1.998V37.16h5.73V38.525z"/>
	<path fill="#640308" d="M99.764,43.617c-0.93,0-1.687-0.285-2.271-0.855s-0.876-1.33-0.876-2.279v-0.164
		c0-0.637,0.123-1.206,0.369-1.708s0.595-0.889,1.046-1.16s0.966-0.407,1.544-0.407c0.867,0,1.55,0.273,2.048,0.82
		s0.747,1.322,0.747,2.326v0.691h-4.037c0.055,0.414,0.22,0.746,0.495,0.996s0.624,0.375,1.046,0.375
		c0.652,0,1.162-0.236,1.529-0.709l0.832,0.932c-0.254,0.359-0.598,0.64-1.031,0.841S100.291,43.617,99.764,43.617z M99.57,38.408
		c-0.336,0-0.608,0.114-0.817,0.342s-0.343,0.553-0.401,0.977h2.355v-0.136c-0.008-0.376-0.109-0.668-0.305-0.874
		S99.93,38.408,99.57,38.408z"/>
	<path fill="#640308" d="M108.846,37.16v6.34h-1.693v-4.975h-1.494l-0.105,1.959c-0.066,1.045-0.271,1.806-0.615,2.282
		c-0.344,0.478-0.855,0.722-1.535,0.733h-0.574l-0.018-1.365l0.211-0.018c0.305-0.023,0.527-0.203,0.668-0.54
		s0.229-0.91,0.264-1.722l0.117-2.695H108.846z"/>
	<path fill="#640308" d="M113.07,43.617c-0.93,0-1.687-0.285-2.271-0.855s-0.876-1.33-0.876-2.279v-0.164
		c0-0.637,0.123-1.206,0.369-1.708s0.595-0.889,1.046-1.16s0.966-0.407,1.544-0.407c0.867,0,1.55,0.273,2.048,0.82
		s0.747,1.322,0.747,2.326v0.691h-4.037c0.055,0.414,0.22,0.746,0.495,0.996s0.624,0.375,1.046,0.375
		c0.652,0,1.162-0.236,1.529-0.709l0.832,0.932c-0.254,0.359-0.598,0.64-1.031,0.841S113.598,43.617,113.07,43.617z M112.877,38.408
		c-0.336,0-0.608,0.114-0.817,0.342s-0.343,0.553-0.401,0.977h2.355v-0.136c-0.008-0.376-0.109-0.668-0.305-0.874
		S113.236,38.408,112.877,38.408z"/>
	<path fill="#640308" d="M120.459,37.16h1.693v6.34h-1.693v-3.914l-2.121,3.914h-1.699v-6.34h1.699v3.908L120.459,37.16z
		 M121.455,34.594c0,0.518-0.187,0.937-0.56,1.256s-0.862,0.479-1.468,0.479s-1.095-0.157-1.468-0.473s-0.56-0.736-0.56-1.262h1.201
		c0,0.246,0.073,0.437,0.22,0.571s0.349,0.202,0.606,0.202c0.254,0,0.453-0.067,0.598-0.202s0.217-0.325,0.217-0.571H121.455z"/>
	<path fill="#640308" d="M123.887,45.639l-0.885-0.463l0.211-0.381c0.262-0.477,0.396-0.951,0.404-1.424v-1.313h1.43l-0.006,1.172
		c-0.004,0.434-0.113,0.871-0.328,1.313S124.223,45.35,123.887,45.639z"/>
	<path fill="#640308" d="M133.408,43.5h-1.693v-6.536l-2.021,0.624v-1.365l3.533-1.266h0.182V43.5z"/>
	<path fill="#640308" d="M136.432,39.305l0.492-4.336h4.781v1.412h-3.393l-0.211,1.834c0.402-0.215,0.83-0.322,1.283-0.322
		c0.813,0,1.449,0.252,1.91,0.756s0.691,1.209,0.691,2.115c0,0.551-0.116,1.044-0.349,1.479s-0.565,0.773-0.999,1.014
		s-0.945,0.36-1.535,0.36c-0.516,0-0.994-0.104-1.436-0.313s-0.79-0.503-1.046-0.882s-0.392-0.811-0.407-1.295h1.676
		c0.035,0.355,0.159,0.632,0.372,0.829s0.491,0.296,0.835,0.296c0.383,0,0.678-0.138,0.885-0.413s0.311-0.665,0.311-1.169
		c0-0.484-0.119-0.855-0.357-1.113s-0.576-0.387-1.014-0.387c-0.402,0-0.729,0.105-0.979,0.316l-0.164,0.152L136.432,39.305z"/>
</g>
</svg>
