<svg xmlns="http://www.w3.org/2000/svg" width="167" height="36" fill="#ffc600"><path d="M13.846.693c4.78 0 8.778 1.656 11.992 4.97C29.052 8.975 30.66 13.088 30.66 18s-1.608 9.024-4.822 12.338-7.212 4.97-11.992 4.97H0V.693h13.846zm0 26.999c2.736 0 4.953-.882 6.652-2.645 1.697-1.763 2.546-4.112 2.546-7.047 0-2.934-.849-5.283-2.546-7.047-1.698-1.763-3.916-2.645-6.652-2.645H7.913v19.384h5.933zm29.671 0h13.846v7.615H35.604V.693h21.511v7.615H43.517v5.736h12.362v7.516H43.517v6.132zm27.098 7.615L59.34.693h8.654l7.664 25.466L83.323.693h8.653L80.703 35.307H70.615zM95.439.693h7.912v34.615h-7.912V.693zM126.294 36c-5.176 0-9.469-1.723-12.882-5.168-3.411-3.445-5.118-7.722-5.118-12.832 0-5.109 1.706-9.387 5.118-12.832C116.825 1.723 121.118 0 126.294 0c3.099 0 5.966.717 8.605 2.151 2.637 1.435 4.714 3.387 6.231 5.86l-6.824 3.956c-.759-1.351-1.847-2.398-3.265-3.14-1.418-.742-3-1.113-4.747-1.113-3.066 0-5.514.94-7.342 2.819-1.831 1.879-2.745 4.369-2.745 7.467 0 3.099.914 5.588 2.745 7.466 1.829 1.88 4.276 2.819 7.342 2.819 1.747 0 3.338-.379 4.773-1.137s2.513-1.797 3.24-3.115l6.824 3.956c-1.484 2.472-3.544 4.426-6.182 5.859-2.64 1.435-5.523 2.152-8.655 2.152zm26.861-8.308H167v7.615h-21.757V.693h21.511v7.615h-13.599v5.736h12.361v7.516h-12.361v6.132z"/></svg>