<svg xmlns="http://www.w3.org/2000/svg" xmlns:xlink="http://www.w3.org/1999/xlink" width="167px" height="36px">
  <symbol id="logo">
    <path d="M13.846,0.693c4.78,0,8.778,1.656,11.992,4.97C29.052,8.975,30.66,13.088,30.66,18s-1.608,9.024-4.822,12.338s-7.212,4.97-11.992,4.97H0V0.693H13.846z M13.846,27.692c2.736,0,4.953-0.882,6.652-2.645c1.697-1.763,2.546-4.112,2.546-7.047c0-2.934-0.849-5.283-2.546-7.047c-1.698-1.763-3.916-2.645-6.652-2.645H7.913v19.384H13.846z"/>
    <path d="M43.517,27.692h13.846v7.615H35.604V0.693h21.511v7.615H43.517v5.736h12.362v7.516H43.517V27.692z"/>
    <path d="M70.615,35.307L59.34,0.693h8.654l7.664,25.466l7.665-25.466h8.653L80.703,35.307H70.615z"/>
    <path d="M95.439,0.693h7.912v34.615h-7.912V0.693z"/>
    <path d="M126.294,36c-5.176,0-9.469-1.723-12.882-5.168c-3.411-3.445-5.118-7.722-5.118-12.832c0-5.109,1.706-9.387,5.118-12.832C116.825,1.723,121.118,0,126.294,0c3.099,0,5.966,0.717,8.605,2.151c2.637,1.435,4.714,3.387,6.231,5.86l-6.824,3.956c-0.759-1.351-1.847-2.398-3.265-3.14c-1.418-0.742-3-1.113-4.747-1.113c-3.066,0-5.514,0.94-7.342,2.819c-1.831,1.879-2.745,4.369-2.745,7.467c0,3.099,0.914,5.588,2.745,7.466c1.829,1.88,4.276,2.819,7.342,2.819c1.747,0,3.338-0.379,4.773-1.137s2.513-1.797,3.24-3.115l6.824,3.956c-1.484,2.472-3.544,4.426-6.182,5.859C132.309,35.283,129.426,36,126.294,36z"/>
    <path d="M153.155,27.692H167v7.615h-21.757V0.693h21.511v7.615h-13.599v5.736h12.361v7.516h-12.361V27.692z"/>
  </symbol>
  <g id="logo-footer" style="fill: #ffc600">
    <use xlink:href="#logo" x="0" y="0"/>
  </g>
</svg>
